<svg xmlns="http://www.w3.org/2000/svg" xmlns:xlink="http://www.w3.org/1999/xlink" width="1920" zoomAndPan="magnify" viewBox="0 0 1440 809.999993" height="1080" preserveAspectRatio="xMidYMid meet" version="1.0"><defs><clipPath id="64a333d669"><path d="M 52 500.398438 L 1408 500.398438 L 1408 810 L 52 810 Z M 52 500.398438 " clip-rule="nonzero"/></clipPath></defs><path fill="#a71a22" d="M 1251.90625 702.835938 L 1386.433594 768.757812 L 1365.84375 616.308594 L 1251.910156 702.835938 Z M 0 671.125 L 38.414062 694.59375 L 0 723.300781 Z M 245.355469 680.859375 L 290.65625 711.761719 L 206.917969 728.929688 Z M 179.988281 622.152344 L 340.253906 604.988281 L 291.179688 704.214844 Z M 606.730469 781.808594 L 719.980469 809.277344 L 719.625 809.480469 L 614.90625 809.480469 Z M 818.128906 735.113281 L 957.585938 809.484375 L 963.851562 809.484375 L 970.503906 708.332031 Z M 1106.40625 592.96875 L 1152.390625 656.144531 L 1189.453125 578.546875 L 1106.402344 592.96875 Z M 1106.40625 592.96875 " fill-opacity="1" fill-rule="evenodd"/><path fill="#003c7c" d="M 1379.230469 628.328125 L 1440.636719 654.8125 L 1440.636719 746.097656 L 1408.398438 771.160156 Z M 159.394531 750.566406 L 290.835938 717.261719 L 269.183594 809.480469 L 209.261719 809.480469 Z M 53.511719 549.699219 L 114.601562 514.679688 L 114.601562 609.441406 Z M 164.878906 533.121094 L 230.082031 525.566406 L 208.804688 558.527344 Z M 339.21875 576.65625 L 407.511719 509.015625 L 431.191406 632.28125 Z M 317.257812 715.203125 L 428.386719 809.480469 L 435.457031 809.480469 L 455.902344 679.492188 Z M 770.082031 693.914062 L 828.425781 584.039062 L 729.585938 585.414062 Z M 896.375 603.265625 L 938.242188 650.648438 L 989.03125 606.699219 Z M 973.933594 667.128906 L 1096.792969 728.246094 L 991.78125 731.679688 Z M 871.316406 785.582031 L 1038.847656 809.480469 L 868.625 809.480469 Z M 1187.390625 682.234375 C 1189.105469 682.921875 1331.527344 766.011719 1331.527344 766.011719 L 1247.113281 809.480469 L 1172.824219 809.480469 Z M 1187.390625 682.234375 " fill-opacity="1" fill-rule="evenodd"/><g clip-path="url(#64a333d669)"><path fill="#ff4342" d="M 1363.097656 774.25 L 1407.082031 809.480469 L 1359.753906 809.480469 L 1363.101562 774.25 Z M 164.199219 631.421875 L 234.894531 679.148438 L 169.003906 717.605469 Z M 52.320312 693.746094 L 156.304688 655.117188 L 145.667969 763.617188 L 52.320312 693.742188 Z M 301.46875 703.871094 L 432.910156 679.152344 L 349.859375 591.9375 Z M 253.679688 567.429688 L 319.570312 565.367188 L 276.328125 500.816406 Z M 460.523438 547.636719 L 562.792969 617.679688 L 455.722656 646.519531 Z M 851.074219 759.148438 L 793.925781 809.480469 L 764.820312 809.480469 L 741.941406 730.996094 Z M 886.761719 630.046875 L 962.949219 681.550781 L 882.644531 691.164062 Z M 978.050781 738.203125 L 1109.144531 733.738281 L 1018.546875 765.671875 Z M 1118.753906 746.101562 L 1098.875 809.484375 L 1000.679688 809.484375 L 975.304688 787.988281 Z M 1087.183594 614.941406 L 1115.324219 691.164062 L 1148.957031 663.011719 Z M 1352.804688 759.832031 L 1346.152344 809.480469 L 1274.054688 809.480469 Z M 1352.804688 759.832031 " fill-opacity="1" fill-rule="evenodd"/></g><path fill="#cf1080" d="M 1114.292969 729.273438 L 1189.453125 797.257812 L 1213.472656 613.21875 Z M 860.683594 774.257812 L 852.617188 809.480469 L 780.726562 809.480469 C 812.234375 796.304688 860.683594 774.257812 860.683594 774.257812 Z M 1281.296875 598.355469 L 1334.804688 510.703125 L 1253.171875 517.960938 L 1281.296875 598.351562 Z M 1385.75 778.027344 L 1440.636719 706.613281 L 1440.636719 799.777344 Z M 32.234375 532.53125 L 22.628906 644.464844 L 0 631.941406 L 0 550.21875 Z M 467.914062 682.753906 L 564.003906 748.675781 L 447.078125 809.480469 L 442.984375 809.480469 Z M 606.042969 669.191406 L 697.328125 612.878906 L 731.648438 720.007812 Z M 606.042969 550.390625 L 645.855469 614.941406 L 691.152344 587.472656 Z M 849.703125 601.207031 L 863.429688 726.1875 L 741.941406 724.128906 Z M 1019.921875 505.136719 L 1024.722656 581.359375 L 1070.023438 531.230469 Z M 1074.144531 614.253906 L 1109.835938 724.816406 L 979.425781 655.457031 Z M 1074.144531 614.253906 " fill-opacity="1" fill-rule="evenodd"/><path fill="#ffaa2d" d="M 1127.675781 749.53125 L 1168.933594 809.480469 L 1120.210938 809.480469 Z M 44.113281 809.480469 L 17.820312 692.53125 L 0 723.550781 L 0 809.480469 Z M 68.453125 720.699219 L 194.054688 783.875 L 160.042969 809.480469 L 82.988281 809.480469 Z M 228.878906 691.847656 L 156.46875 735.109375 L 194.902344 732.363281 Z M 39.785156 567.550781 L 192.160156 601.886719 L 49.394531 682.917969 Z M 295.636719 735.460938 C 298.542969 736.332031 384.824219 792.324219 411.226562 809.480469 L 284.867188 809.480469 Z M 569.496094 758.289062 L 567.886719 809.480469 L 459.488281 809.480469 Z M 468.597656 659.402344 L 596.949219 620.261719 L 585.28125 762.410156 Z M 602.613281 770.820312 L 608.789062 693.910156 L 715.859375 704.210938 L 602.609375 770.820312 Z M 615.652344 770.820312 L 726.84375 726.183594 L 736.46875 809.480469 L 680.769531 809.480469 Z M 615.652344 770.820312 " fill-opacity="1" fill-rule="evenodd"/></svg>