<svg xmlns="http://www.w3.org/2000/svg" xmlns:xlink="http://www.w3.org/1999/xlink" width="1920" zoomAndPan="magnify" viewBox="0 0 1440 809.999993" height="1080" preserveAspectRatio="xMidYMid meet" version="1.0"><path fill="#a2bed6" d="M -13.054688 536.601562 L -13.054688 254.746094 C 67.894531 213.664062 160.808594 189.886719 231.671875 239.71875 C 383.441406 346.449219 541.8125 528.871094 851.953125 359.523438 C 1162.097656 190.171875 1453.183594 359.523438 1453.183594 359.523438 L 1453.183594 536.601562 L -13.054688 536.601562 " fill-opacity="1" fill-rule="nonzero"/><path fill="#7490a8" d="M 1453.183594 373.132812 C 1453.183594 373.132812 1256.851562 280.351562 1063.292969 434.308594 C 850.640625 603.441406 886.476562 311.558594 654.816406 364.339844 C 423.152344 417.113281 335.789062 592.242188 165.863281 465.09375 C 88.90625 407.511719 -13.054688 431.777344 -13.054688 431.777344 L -13.054688 838.617188 L 1453.183594 838.617188 L 1453.183594 373.132812 " fill-opacity="1" fill-rule="nonzero"/><path fill="#698094" d="M -13.054688 457.433594 C -13.054688 457.433594 256.003906 640.835938 566.84375 508.886719 C 877.6875 376.9375 895.277344 598.179688 1100.550781 686.144531 C 1305.824219 774.109375 1217.257812 415.496094 1453.183594 416.382812 L 1453.183594 838.617188 L -13.054688 838.617188 L -13.054688 457.433594 " fill-opacity="1" fill-rule="nonzero"/><path fill="#a2bed6" d="M 1453.183594 838.617188 L 1453.183594 556.761719 C 1372.246094 515.679688 1279.320312 491.898438 1208.457031 541.734375 C 1056.6875 648.464844 898.324219 830.882812 588.179688 661.535156 C 278.042969 492.1875 -13.054688 661.535156 -13.054688 661.535156 L -13.054688 838.617188 L 1453.183594 838.617188 " fill-opacity="1" fill-rule="nonzero"/></svg>